# xmcd
#
# Track frame offsets:
#	257
#	14942
#	25382
#	43647
#	60715
#	76782
#	104620
#	118047
#	134077
#	147905
#	173772
#	185477
#	198040
#	211860
#
# Disc length: 3015 seconds
#
# Revision: 0
# Processed by: cddbd v1.4PL0 Copyright (c) Steve Scherf et al.
# Submitted via: EasyCDDAExtractor 4.6.0.1
#
DISCID=cc0bc40e
DTITLE=John Mooney - Testimony
DYEAR=1992
DGENRE=blues
TTITLE0=I Plead Guilty
TTITLE1=One Thing
TTITLE2=Lil' Queen O' Spades
TTITLE3=Push and Shove
TTITLE4=In the Night
TTITLE5=Take Time to Know Her
TTITLE6=I Wish I Was In Heaven Sittin' Down
TTITLE7=Cryin' Out Loud
TTITLE8=Maybe Baby
TTITLE9=Levee Camp Moan
TTITLE10=Common Ground
TTITLE11=Married Woman Blues
TTITLE12=Man's Gotta Do]
TTITLE13=Hey Now Baby
EXTD=
EXTT0=
EXTT1=
EXTT2=
EXTT3=
EXTT4=
EXTT5=
EXTT6=
EXTT7=
EXTT8=
EXTT9=
EXTT10=
EXTT11=
EXTT12=
EXTT13=
PLAYORDER=
